<svg width="230" height="49" viewBox="0 0 230 49" fill="none" xmlns="http://www.w3.org/2000/svg">
<g clip-path="url(#clip0_16_96)">
<path d="M7.70754 40.4689C7.70457 40.3079 7.66973 40.149 7.60539 40.0015C7.54103 39.8539 7.44823 39.7204 7.33232 39.6086C7.21657 39.4969 7.07974 39.4092 6.92993 39.3504C6.78029 39.2915 6.62033 39.2628 6.45959 39.266L6.44958 39.2662H4.81094V41.6179H6.39444C7.21642 41.6179 7.70754 41.0158 7.70754 40.4689ZM4.80954 36.8591H5.73789C6.50347 36.8591 6.88683 36.3674 6.88683 35.8206C6.88683 35.2736 6.50347 34.7818 5.73789 34.7818H4.80829L4.80954 36.8591ZM11.1503 40.6335C11.1503 42.4371 9.8373 44.242 7.27421 44.242H0V41.6126H1.25655V34.7767H0V32.1028H6.42084C8.89723 32.1028 10.1118 33.6882 10.1118 35.3891C10.1043 36.2288 9.77091 37.0328 9.18217 37.6308C10.6054 38.2816 11.1503 39.4304 11.1503 40.6335ZM36.5867 3.66485V7.6311H39.1604V6.30986H40.6205V13.1288H39.369V15.7725H45.4893V13.1288H44.1683V6.30971H45.6284V7.6311H48.2716V3.6647L36.5867 3.66485ZM16.8293 23.4683H18.4588C19.55 23.4683 20.4441 23.0739 20.4441 21.9854C20.4441 20.8286 19.546 20.5078 18.4549 20.5078H16.8293V23.4683ZM17.8679 30.0308H11.8555V27.345H13.2775V20.5091H11.8555V17.9375H19.2505C22.4859 17.9375 24.1167 19.7045 24.1167 21.9511C24.104 22.6902 23.8944 23.4122 23.5098 24.0431C23.1255 24.6741 22.5796 25.1908 21.9291 25.5402C22.147 26.8548 23.2868 27.345 24.6984 27.345H26.9568V20.5091H25.0397V17.9375H32.3102V20.5091H30.3996V27.345H32.3128V30.0242H24.5473C21.0271 30.0242 19.3582 28.657 18.5402 26.0805H16.8333V27.3383H17.8718V30.0191L17.8679 30.0308ZM30.0399 9.58575H32.1958L31.0797 6.65675L30.0399 9.58575ZM17.8365 15.7789H11.8555V13.1288H13.3156V6.30971H11.8555V3.6647H17.9755V6.30971H16.7938V8.39744H18.0464C19.6458 8.39744 20.6201 7.63095 20.6201 6.30971H19.5761V3.6647H25.3536V6.30971H23.8884C23.8884 8.11874 22.6358 9.64894 21.3843 10.3457C21.7309 12.2242 22.8077 13.1288 25.1711 12.9907L27.8145 6.30971H26.9096V3.6647H33.7258L37.3431 13.13H38.5946V15.7738H32.473V13.1288H33.4433L33.1649 12.2242H29.1339L28.8554 13.1288H29.9678V15.7724H27.5648C23.3919 15.7724 22.8457 15.7724 21.3147 15.1466C19.8546 14.5209 18.7409 12.9894 18.1842 11.041H16.7938V13.1288H17.8365V15.7789ZM10.8589 30.0414H0.00124839V27.4016H1.32216V20.5828H0.00124839V17.9375H10.8589V21.9748H8.13962V20.5828H4.80049V22.6006H7.93076V25.2442H4.80049V27.4056H8.13962V26.0134H10.8511L10.8589 30.0414ZM41.9283 17.9391H48.1573V20.5091H46.8443V30.0204H42.9631L38.2018 23.137V27.3438H39.6147V30.0231H33.333V27.3438H34.7563V20.5078H33.333V17.9375H38.53L43.4002 24.8775V20.5091H41.9283V17.9391ZM10.8524 15.7789H0.00124839V13.1288H1.32216V6.30971H0.00124839V3.6647H10.8589V7.70179H8.13962V6.30971H4.80049V8.32753H7.93076V10.9713H4.80049V13.1286H8.13962V11.7378H10.8589L10.8524 15.7789ZM42.2683 37.2145V39.7857H45.0427V40.7994C44.3376 41.4094 43.622 41.6081 42.6924 41.6081C40.9434 41.5541 39.7944 40.0909 39.7944 38.1189C39.7944 35.9681 40.8804 34.6784 42.6924 34.6784C43.2926 34.654 43.8872 34.8023 44.4059 35.1057L44.419 36.3718H47.4798V33.5348C46.3243 32.5699 44.8759 31.885 42.4718 31.885C38.3161 31.885 36.3004 34.9283 36.3004 38.1729C36.2783 39.155 36.4846 40.1291 36.9032 41.0177C35.9932 41.892 34.1091 41.5344 33.4891 39.7149C34.1449 39.3673 34.6956 38.85 35.0838 38.217C35.4719 37.5838 35.6835 36.8582 35.6964 36.1155C35.6964 33.8687 34.0656 32.1032 30.8316 32.1032H17.931V34.7824H19.521V39.4861C19.521 40.9072 18.59 41.6185 17.608 41.6185C16.6259 41.6185 15.5858 40.8519 15.5858 39.4861V34.7824H16.8989V32.1032H10.7814V34.7824H11.929V39.3283C11.929 42.937 14.7114 44.5776 17.4438 44.5776C20.5597 44.5776 22.9652 42.7174 22.9652 39.3283V34.789H25.1185V41.6251H23.6217V44.2541H29.6355V41.6251H28.5562V40.3106H30.1186C31.7455 44.7513 36.3413 45.0839 38.9753 43.4825C39.6844 44.028 40.996 44.4659 42.6359 44.4659C45.4236 44.4659 47.2816 43.2735 48.1024 41.742V37.2145H42.2683ZM30.1436 37.7363H28.5562V34.7824H30.141C31.2321 34.7824 32.1303 35.1031 32.1303 36.2587C32.1303 37.3499 31.2348 37.7363 30.1436 37.7363Z" fill="white"/>
<mask id="mask0_16_96" style="mask-type:luminance" maskUnits="userSpaceOnUse" x="65" y="0" width="36" height="49">
<path d="M100.708 0.823517H65.3086V48.1765H100.708V0.823517Z" fill="white"/>
</mask>
<g mask="url(#mask0_16_96)">
<path d="M66.6023 23.5069H65.3165V4.22403H71.3884V5.51114C73.0631 5.51114 74.7378 5.51114 76.4046 5.51114V2.9687L82.9764 0.823517L89.5563 2.97666V5.51909C91.231 5.51909 92.9058 5.51909 94.5724 5.51909V4.23198H100.644V23.5149H99.3505V24.937H100.644V39.8499C100.644 42.7975 98.2077 45.1493 95.2788 45.1493H85.7862L82.9764 48.1367L79.873 45.1493H70.6739C67.7453 45.1493 65.3086 42.7975 65.3086 39.8499V24.929H66.5943L66.6023 23.5069Z" fill="white"/>
<path d="M89.3249 11.9467C89.3249 11.9467 87.2485 13.9635 85.0025 14.7766C68.3711 20.7983 75.3852 32.5331 75.6141 32.5718C75.6141 32.5718 76.5468 30.946 77.8066 30.0189C85.8007 24.1359 87.4257 17.3643 87.4257 17.3643C87.4257 17.3643 85.6317 25.5126 78.5197 30.5828C76.9489 31.702 75.8852 34.4579 75.435 37.2122C75.435 37.2122 76.5483 36.7619 77.0272 36.64C77.2139 35.4201 77.6044 34.2522 78.2643 33.209C88.2043 34.3937 91.4599 26.3759 91.885 23.5802C92.8889 16.9774 89.3249 11.9467 89.3249 11.9467Z" fill="#3EB050"/>
</g>
<path d="M121.462 8.33368C122.867 8.33368 123.961 8.81132 124.744 9.76658C125.527 10.7218 125.919 12.1547 125.919 14.0653C125.919 15.9973 125.506 17.4785 124.68 18.5089C123.854 19.5285 122.711 20.0384 121.253 20.0384C120.523 20.0384 119.885 19.931 119.338 19.7164C118.791 19.491 118.303 19.169 117.874 18.7504L119.048 17.2853C119.381 17.5536 119.697 17.7522 119.997 17.881C120.309 17.999 120.668 18.0581 121.076 18.0581C122.438 18.0581 123.157 17.033 123.232 14.983H119.466V13.1154H123.232C123.124 11.2048 122.47 10.2496 121.269 10.2496C120.872 10.2496 120.518 10.314 120.207 10.4428C119.896 10.5716 119.568 10.7809 119.225 11.0707L117.97 9.58948C118.474 9.17088 118.995 8.85962 119.531 8.65568C120.067 8.44102 120.711 8.33368 121.462 8.33368ZM135.123 11.2156L132.854 15.1762L135.316 19.7647H132.629L130.762 16.0939H129.99V19.7647H127.448V11.2156H129.99V14.5483H130.827L132.677 11.2156H135.123ZM139.76 10.9419C141.068 10.9419 142.093 11.3444 142.833 12.1494C143.573 12.9436 143.943 14.0599 143.943 15.4982C143.943 16.4105 143.771 17.2101 143.428 17.8971C143.096 18.5733 142.613 19.0992 141.98 19.4749C141.358 19.8505 140.618 20.0384 139.76 20.0384C138.461 20.0384 137.437 19.6412 136.686 18.847C135.946 18.042 135.576 16.9203 135.576 15.4821C135.576 14.5697 135.742 13.7755 136.075 13.0993C136.418 12.4123 136.901 11.881 137.523 11.5054C138.156 11.1297 138.901 10.9419 139.76 10.9419ZM139.76 12.8095C139.245 12.8095 138.858 13.0295 138.601 13.4696C138.344 13.8989 138.215 14.5697 138.215 15.4821C138.215 16.4159 138.338 17.0974 138.585 17.5268C138.842 17.9561 139.234 18.1708 139.76 18.1708C140.274 18.1708 140.661 17.9561 140.918 17.5268C141.175 17.0867 141.304 16.4105 141.304 15.4982C141.304 14.5644 141.175 13.8828 140.918 13.4535C140.671 13.0241 140.285 12.8095 139.76 12.8095ZM152.474 11.2156V19.7647H149.932V13.0832H148.307L148.146 14.9025C148.028 16.1583 147.889 17.0974 147.728 17.72C147.578 18.3318 147.309 18.8148 146.923 19.169C146.537 19.5232 145.947 19.7916 145.153 19.974L144.526 18.1225C144.88 17.9615 145.127 17.7951 145.266 17.6234C145.416 17.4409 145.529 17.1565 145.604 16.7701C145.679 16.3729 145.749 15.7075 145.813 14.7737L146.07 11.2156H152.474ZM158.176 10.9419C159.484 10.9419 160.509 11.3444 161.249 12.1494C161.989 12.9436 162.359 14.0599 162.359 15.4982C162.359 16.4105 162.187 17.2101 161.844 17.8971C161.512 18.5733 161.029 19.0992 160.396 19.4749C159.774 19.8505 159.034 20.0384 158.176 20.0384C156.878 20.0384 155.853 19.6412 155.102 18.847C154.362 18.042 153.992 16.9203 153.992 15.4821C153.992 14.5697 154.158 13.7755 154.491 13.0993C154.834 12.4123 155.317 11.881 155.939 11.5054C156.572 11.1297 157.317 10.9419 158.176 10.9419ZM158.176 12.8095C157.661 12.8095 157.275 13.0295 157.017 13.4696C156.76 13.8989 156.631 14.5697 156.631 15.4821C156.631 16.4159 156.754 17.0974 157.001 17.5268C157.258 17.9561 157.65 18.1708 158.176 18.1708C158.69 18.1708 159.077 17.9561 159.334 17.5268C159.592 17.0867 159.72 16.4105 159.72 15.4982C159.72 14.5644 159.592 13.8828 159.334 13.4535C159.087 13.0241 158.701 12.8095 158.176 12.8095ZM166.414 19.7647H163.871V11.2156H169.921L169.616 13.1476H166.414V19.7647ZM178.347 19.7647H175.933V16.7218C175.933 16.1207 175.965 15.5518 176.03 15.0152C176.094 14.4785 176.174 14.0277 176.271 13.6628L173.423 19.7647H170.832V11.2156H173.262V14.3068C173.262 14.8756 173.225 15.4338 173.149 15.9812C173.085 16.5286 173.01 16.9794 172.924 17.3336L175.74 11.2156H178.347V19.7647ZM187.306 11.2156V19.7647H184.764V16.7862H183.67L182.125 19.7647H179.406L181.369 16.1905C180.951 15.9651 180.623 15.6699 180.387 15.305C180.162 14.9293 180.049 14.4946 180.049 14.0009C180.049 13.0885 180.387 12.3962 181.063 11.924C181.75 11.4517 182.742 11.2156 184.04 11.2156H187.306ZM184.764 15.2728V12.8417H184.024C183.562 12.8417 183.214 12.9436 182.978 13.1476C182.753 13.3515 182.64 13.6413 182.64 14.017C182.64 14.4141 182.747 14.7254 182.962 14.9508C183.187 15.1654 183.525 15.2728 183.976 15.2728H184.764ZM125.629 27.9274L125.356 29.8111H121.43V32.4837H124.857V34.3352H121.43V37.1849H125.629V39.0847H118.791V27.9274H125.629ZM134.73 30.5356L132.461 34.4962L134.923 39.0847H132.236L130.369 35.4139H129.597V39.0847H127.055V30.5356H129.597V33.8683H130.434L132.284 30.5356H134.73ZM142.424 36.6053C142.424 36.9273 142.467 37.1635 142.553 37.3137C142.65 37.4639 142.8 37.5766 143.004 37.6518L142.473 39.3101C141.947 39.2671 141.518 39.1544 141.186 38.972C140.853 38.7788 140.596 38.4782 140.413 38.0704C139.855 38.929 138.997 39.3584 137.839 39.3584C136.991 39.3584 136.316 39.1116 135.811 38.6178C135.307 38.124 135.055 37.48 135.055 36.6858C135.055 35.752 135.398 35.0383 136.085 34.5445C136.771 34.0507 137.764 33.8039 139.062 33.8039H139.93V33.4336C139.93 32.9292 139.823 32.5856 139.609 32.4032C139.394 32.21 139.019 32.1134 138.482 32.1134C138.203 32.1134 137.866 32.1564 137.469 32.2422C137.072 32.3174 136.664 32.4246 136.246 32.5642L135.666 30.8898C136.203 30.6858 136.75 30.5303 137.308 30.4229C137.876 30.3155 138.402 30.2619 138.885 30.2619C140.107 30.2619 141.003 30.5142 141.572 31.0186C142.14 31.523 142.424 32.2797 142.424 33.2887V36.6053ZM138.579 37.5391C139.158 37.5391 139.609 37.2654 139.93 36.718V35.2046H139.303C138.724 35.2046 138.289 35.3065 138 35.5105C137.721 35.7145 137.581 36.031 137.581 36.4604C137.581 36.8038 137.667 37.0722 137.839 37.2654C138.021 37.4478 138.268 37.5391 138.579 37.5391ZM150.829 30.5356L150.523 32.4193H148.206V39.0847H145.664V32.4193H143.17V30.5356H150.829ZM158.766 34.6411C158.766 34.9953 158.75 35.3012 158.718 35.5588H153.424C153.51 36.278 153.714 36.7824 154.036 37.0722C154.357 37.362 154.803 37.5069 155.371 37.5069C155.715 37.5069 156.047 37.4478 156.369 37.3298C156.691 37.201 157.039 37.0078 157.415 36.7502L158.46 38.167C157.463 38.9612 156.353 39.3584 155.13 39.3584C153.746 39.3584 152.684 38.9506 151.944 38.1348C151.204 37.319 150.834 36.2242 150.834 34.8504C150.834 33.981 150.989 33.2029 151.3 32.5159C151.611 31.8183 152.067 31.2709 152.668 30.8737C153.269 30.4659 153.987 30.2619 154.824 30.2619C156.058 30.2619 157.023 30.6483 157.72 31.4211C158.418 32.1939 158.766 33.2673 158.766 34.6411ZM156.272 33.9166C156.251 32.6072 155.789 31.9524 154.888 31.9524C154.449 31.9524 154.105 32.1134 153.859 32.4354C153.623 32.7574 153.478 33.2887 153.424 34.0293H156.272V33.9166ZM165.022 30.2619C166.094 30.2619 166.893 30.6591 167.419 31.4533C167.945 32.2475 168.208 33.3584 168.208 34.786C168.208 35.6662 168.068 36.4551 167.789 37.1527C167.521 37.8397 167.13 38.3816 166.615 38.7788C166.1 39.1652 165.499 39.3584 164.812 39.3584C163.954 39.3584 163.262 39.0633 162.737 38.4729V42.3852L160.194 42.6589V30.5356H162.431L162.56 31.4855C162.892 31.0669 163.273 30.761 163.702 30.5678C164.131 30.3638 164.571 30.2619 165.022 30.2619ZM164.04 37.4908C165.059 37.4908 165.569 36.6 165.569 34.8182C165.569 33.8092 165.456 33.1116 165.231 32.7252C165.006 32.328 164.668 32.1295 164.217 32.1295C163.927 32.1295 163.654 32.2153 163.396 32.3871C163.15 32.5589 162.93 32.8057 162.737 33.1277V36.7341C163.08 37.2385 163.514 37.4908 164.04 37.4908ZM177.31 39.0847H174.896V36.0418C174.896 35.4408 174.928 34.8718 174.992 34.3352C175.057 33.7986 175.137 33.3478 175.234 32.9828L172.386 39.0847H169.795V30.5356H172.225V33.6268C172.225 34.1956 172.187 34.7538 172.112 35.3012C172.048 35.8486 171.973 36.2994 171.887 36.6536L174.703 30.5356H177.31V39.0847ZM184.193 39.0847V35.6876H181.844V39.0847H179.302V30.5356H181.844V33.8039H184.193V30.5356H186.736V39.0847H184.193ZM193.236 31.1313C193.836 31.1313 194.377 31.287 194.86 31.5982C195.354 31.9094 195.74 32.3657 196.019 32.9667C196.299 33.5571 196.437 34.2655 196.437 35.0919C196.437 35.9613 196.27 36.718 195.939 37.362C195.606 38.006 195.129 38.4998 194.506 38.8432C193.895 39.1866 193.181 39.3584 192.367 39.3584C191.089 39.3584 190.082 38.9451 189.342 38.1187C188.612 37.2815 188.247 36.0096 188.247 34.303C188.247 33.058 188.349 32.0382 188.553 31.244C188.767 30.4498 189.127 29.8003 189.632 29.2959C190.147 28.7807 190.864 28.3782 191.788 28.0884C192.441 27.8844 192.956 27.702 193.332 27.541C193.707 27.3692 194.137 27.1438 194.62 26.8648L195.536 28.4909C195.161 28.7377 194.764 28.9525 194.345 29.1349C193.938 29.3173 193.418 29.5052 192.785 29.6984C192.312 29.8486 191.937 30.0257 191.659 30.2297C191.39 30.4229 191.176 30.6966 191.015 31.0508C190.855 31.3942 190.741 31.8611 190.677 32.4515C191.288 31.5713 192.142 31.1313 193.236 31.1313ZM192.35 37.4908C192.812 37.4908 193.172 37.319 193.429 36.9756C193.686 36.6214 193.815 36.0204 193.815 35.1724C193.815 34.3566 193.707 33.7931 193.493 33.4819C193.278 33.1599 192.952 32.9989 192.511 32.9989C192.189 32.9989 191.884 33.0902 191.595 33.2726C191.305 33.4444 191.068 33.7073 190.887 34.0615V35.1563C190.887 35.9505 191.015 36.5409 191.273 36.9273C191.53 37.3029 191.89 37.4908 192.35 37.4908ZM202.542 39.1008C202.199 40.2064 201.635 41.0542 200.853 41.6446C200.081 42.2456 199.04 42.5837 197.732 42.6589L197.457 40.8718C198.273 40.7644 198.873 40.582 199.259 40.3244C199.657 40.0668 199.973 39.6535 200.21 39.0847H199.341L196.734 30.5356H199.437L200.965 37.4586L202.638 30.5356H205.262L202.542 39.1008ZM210.983 30.2619C212.056 30.2619 212.855 30.6591 213.381 31.4533C213.906 32.2475 214.169 33.3584 214.169 34.786C214.169 35.6662 214.031 36.4551 213.75 37.1527C213.484 37.8397 213.092 38.3816 212.577 38.7788C212.062 39.1652 211.46 39.3584 210.775 39.3584C209.915 39.3584 209.224 39.0633 208.698 38.4729V42.3852L206.156 42.6589V30.5356H208.393L208.522 31.4855C208.853 31.0669 209.236 30.761 209.663 30.5678C210.093 30.3638 210.532 30.2619 210.983 30.2619ZM210.002 37.4908C211.021 37.4908 211.53 36.6 211.53 34.8182C211.53 33.8092 211.418 33.1116 211.193 32.7252C210.968 32.328 210.629 32.1295 210.178 32.1295C209.889 32.1295 209.616 32.2153 209.359 32.3871C209.111 32.5589 208.891 32.8057 208.698 33.1277V36.7341C209.043 37.2385 209.476 37.4908 210.002 37.4908ZM218.299 39.0847H215.757V30.5356H221.807L221.502 32.4676H218.299V39.0847ZM228.864 36.6053C228.864 36.9273 228.908 37.1635 228.993 37.3137C229.089 37.4639 229.239 37.5766 229.443 37.6518L228.911 39.3101C228.387 39.2671 227.957 39.1544 227.624 38.972C227.293 38.7788 227.036 38.4782 226.852 38.0704C226.295 38.929 225.436 39.3584 224.277 39.3584C223.431 39.3584 222.755 39.1116 222.25 38.6178C221.746 38.124 221.495 37.48 221.495 36.6858C221.495 35.752 221.837 35.0383 222.524 34.5445C223.212 34.0507 224.204 33.8039 225.5 33.8039H226.369V33.4336C226.369 32.9292 226.263 32.5856 226.047 32.4032C225.833 32.21 225.459 32.1134 224.921 32.1134C224.643 32.1134 224.306 32.1564 223.908 32.2422C223.511 32.3174 223.104 32.4246 222.685 32.5642L222.106 30.8898C222.642 30.6858 223.189 30.5303 223.747 30.4229C224.315 30.3155 224.842 30.2619 225.324 30.2619C226.547 30.2619 227.443 30.5142 228.01 31.0186C228.58 31.523 228.864 32.2797 228.864 33.2887V36.6053ZM225.018 37.5391C225.597 37.5391 226.047 37.2654 226.369 36.718V35.2046H225.743C225.163 35.2046 224.728 35.3065 224.438 35.5105C224.16 35.7145 224.02 36.031 224.02 36.4604C224.02 36.8038 224.107 37.0722 224.277 37.2654C224.461 37.4478 224.707 37.5391 225.018 37.5391Z" fill="white"/>
</g>
<defs>
<clipPath id="clip0_16_96">
<rect width="230" height="47.3529" fill="white" transform="translate(0 0.823517)"/>
</clipPath>
</defs>
</svg>
